<svg width="368" height="213" viewBox="0 0 368 213" fill="none" xmlns="http://www.w3.org/2000/svg">
<path d="M368 17.5777V194.995C367.997 199.652 366.089 204.118 362.694 207.41C359.3 210.701 354.698 212.551 349.9 212.551H18.1474C15.7675 212.557 13.4097 212.107 11.209 211.228C9.0083 210.348 7.00791 209.056 5.3223 207.426C3.6367 205.795 2.29898 203.858 1.38571 201.725C0.472438 199.592 0.0015514 197.305 2.61304e-10 194.995L2.61304e-10 17.5777C-1.27939e-05 15.2675 0.469807 12.9799 1.38252 10.8463C2.29524 8.71261 3.6329 6.77477 5.31882 5.14386C7.00474 3.51295 9.00575 2.22104 11.2071 1.34219C13.4085 0.46335 15.767 0.0148587 18.1474 0.0224332H349.9C352.276 0.0209209 354.63 0.473886 356.826 1.35544C359.022 2.237 361.017 3.52988 362.698 5.16018C364.379 6.79049 365.712 8.72628 366.622 10.8569C367.532 12.9876 368 15.2714 368 17.5777Z" fill="url(#paint0_linear_173_292)"/>
<g style="mix-blend-mode:soft-light" opacity="0.5">
<path d="M316.005 0.00012207L137.894 213H84.0596L262.17 0.00012207H316.005Z" fill="url(#paint1_linear_173_292)"/>
<path d="M241.441 0.00012207L63.3189 213H33.2686L211.379 0.00012207H241.441Z" fill="url(#paint2_linear_173_292)"/>
</g>
<path d="M32.7406 39.8462V26.2228H38.687C39.5584 26.2228 40.3009 26.3762 40.9146 26.683C41.5283 26.9899 41.9947 27.401 42.3138 27.9165C42.6451 28.432 42.8108 28.9966 42.8108 29.6102C42.8108 30.2362 42.6942 30.7517 42.461 31.1567C42.2401 31.5617 41.9701 31.8808 41.651 32.114C41.3442 32.3349 41.0619 32.4883 40.8041 32.5742V32.7031C41.1232 32.789 41.4792 32.9547 41.8719 33.2002C42.2769 33.4456 42.6267 33.7954 42.9213 34.2496C43.2158 34.6914 43.3631 35.2682 43.3631 35.9801C43.3631 36.6183 43.2097 37.2381 42.9029 37.8395C42.596 38.4286 42.1112 38.9134 41.4485 39.2939C40.7857 39.6621 39.9082 39.8462 38.8159 39.8462H32.7406ZM38.3556 28.3399H35.2443V31.8931H38.3556C39.0675 31.8931 39.5829 31.7151 39.902 31.3592C40.2212 31.0033 40.3807 30.586 40.3807 30.1073C40.3807 29.6409 40.2212 29.2298 39.902 28.8738C39.5829 28.5179 39.0675 28.3399 38.3556 28.3399ZM38.5397 33.8077H35.2443V37.729H38.5397C39.3497 37.729 39.9389 37.5327 40.3071 37.1399C40.6753 36.7472 40.8594 36.2869 40.8594 35.7592C40.8594 35.2437 40.6753 34.7896 40.3071 34.3968C39.9389 34.0041 39.3497 33.8077 38.5397 33.8077ZM44.8062 39.8462L49.5007 26.2228H52.7593L57.4722 39.8462H54.858L53.8823 36.9742H48.3961L47.4204 39.8462H44.8062ZM49.1141 34.8019H53.1643L51.1392 28.7818L49.1141 34.8019ZM59.4387 39.8462V26.2228H61.7215L67.9809 35.4646V26.2228H70.4662V39.8462H68.1834L61.924 30.7701V39.8462H59.4387ZM73.1203 39.8462V26.2228H75.6241V32.1324L80.8157 26.2412H83.9454L78.0358 32.7768L84.1847 39.8462H80.9446L75.6241 33.6236V39.8462H73.1203ZM90.3078 39.8462V26.2228H92.5906L98.85 35.4646V26.2228H101.335V39.8462H99.0525L92.7931 30.7701V39.8462H90.3078ZM103.308 39.8462L108.003 26.2228H111.261L115.974 39.8462H113.36L112.384 36.9742H106.898L105.922 39.8462H103.308ZM107.616 34.8019H111.666L109.641 28.7818L107.616 34.8019ZM117.941 39.8462V26.2228H121.273L124.679 33.6052L128.158 26.2228H131.435V39.8462H128.968V29.9968L125.839 36.5508H123.519L120.408 29.96V39.8462H117.941ZM134.085 39.8462V26.2228H143.217V28.3952H136.589V31.8563H142.388V33.9734H136.589V37.6738H143.309V39.8462H134.085Z" fill="white"/>
<path d="M34.3488 152.534C33.4608 152.534 32.6688 152.354 31.9728 151.994C31.2888 151.634 30.7068 151.142 30.2268 150.518C29.7468 149.882 29.3808 149.15 29.1288 148.322C28.8888 147.494 28.7688 146.618 28.7688 145.694C28.7688 144.758 28.8888 143.876 29.1288 143.048C29.3808 142.22 29.7468 141.494 30.2268 140.87C30.7068 140.234 31.2888 139.742 31.9728 139.394C32.6688 139.034 33.4608 138.854 34.3488 138.854C35.2368 138.854 36.0228 139.034 36.7068 139.394C37.4028 139.742 37.9908 140.234 38.4708 140.87C38.9508 141.494 39.3108 142.22 39.5508 143.048C39.8028 143.876 39.9288 144.758 39.9288 145.694C39.9288 146.618 39.8028 147.494 39.5508 148.322C39.3108 149.15 38.9508 149.882 38.4708 150.518C37.9908 151.142 37.4028 151.634 36.7068 151.994C36.0228 152.354 35.2368 152.534 34.3488 152.534ZM34.3488 150.068C35.1408 150.068 35.7888 149.702 36.2928 148.97C36.8088 148.238 37.0668 147.146 37.0668 145.694C37.0668 144.242 36.8088 143.15 36.2928 142.418C35.7888 141.686 35.1408 141.32 34.3488 141.32C33.5568 141.32 32.9028 141.686 32.3868 142.418C31.8828 143.15 31.6308 144.242 31.6308 145.694C31.6308 147.146 31.8828 148.238 32.3868 148.97C32.9028 149.702 33.5568 150.068 34.3488 150.068ZM47.1143 139.034V152.354H44.3423V142.814L41.7683 142.832V141.158L42.1823 141.032C42.9383 140.816 43.5503 140.57 44.0183 140.294C44.4863 140.018 44.9363 139.652 45.3683 139.196L45.4943 139.034H47.1143ZM50.1683 152.354V150.446L52.4723 148.484C53.4323 147.68 54.2543 146.996 54.9383 146.432C55.6223 145.868 56.1443 145.34 56.5043 144.848C56.8643 144.356 57.0443 143.828 57.0443 143.264C57.0443 142.832 56.9423 142.472 56.7383 142.184C56.5343 141.884 56.2703 141.662 55.9463 141.518C55.6343 141.362 55.3043 141.284 54.9563 141.284C54.5363 141.284 54.1823 141.362 53.8943 141.518C53.6183 141.674 53.3963 141.878 53.2283 142.13C53.0723 142.37 52.9583 142.622 52.8863 142.886C52.8143 143.15 52.7783 143.378 52.7783 143.57H50.1143C50.1143 143.066 50.2103 142.544 50.4023 142.004C50.5943 141.452 50.8883 140.942 51.2843 140.474C51.6803 139.994 52.1903 139.604 52.8143 139.304C53.4383 139.004 54.1823 138.854 55.0463 138.854C55.9223 138.854 56.7203 139.028 57.4403 139.376C58.1603 139.712 58.7363 140.198 59.1683 140.834C59.6123 141.47 59.8343 142.22 59.8343 143.084C59.8343 143.9 59.6303 144.644 59.2223 145.316C58.8263 145.976 58.2683 146.624 57.5483 147.26C56.8283 147.884 56.0003 148.562 55.0643 149.294L54.3083 149.924H60.0143V152.354H50.1683ZM67.5754 152.534C66.7114 152.534 65.9794 152.426 65.3794 152.21C64.7914 151.994 64.3114 151.712 63.9394 151.364C63.5674 151.016 63.2734 150.65 63.0574 150.266C62.8534 149.87 62.7094 149.498 62.6254 149.15C62.5534 148.79 62.5174 148.496 62.5174 148.268H65.1454C65.1454 148.52 65.2174 148.802 65.3614 149.114C65.5054 149.414 65.7454 149.678 66.0814 149.906C66.4294 150.134 66.9154 150.248 67.5394 150.248C68.1874 150.248 68.7214 150.08 69.1414 149.744C69.5734 149.408 69.7894 148.958 69.7894 148.394C69.7894 147.89 69.6034 147.476 69.2314 147.152C68.8714 146.816 68.3554 146.648 67.6834 146.648H65.8834V144.506H67.7014C68.2774 144.506 68.7394 144.35 69.0874 144.038C69.4354 143.714 69.6094 143.318 69.6094 142.85C69.6094 142.358 69.4114 141.95 69.0154 141.626C68.6194 141.29 68.1274 141.122 67.5394 141.122C66.9874 141.122 66.5494 141.242 66.2254 141.482C65.9134 141.722 65.6854 142.004 65.5414 142.328C65.4094 142.652 65.3434 142.934 65.3434 143.174H62.7694C62.7694 142.958 62.8054 142.67 62.8774 142.31C62.9614 141.95 63.1054 141.572 63.3094 141.176C63.5134 140.78 63.7954 140.408 64.1554 140.06C64.5154 139.7 64.9714 139.412 65.5234 139.196C66.0874 138.968 66.7714 138.854 67.5754 138.854C68.3794 138.854 69.1414 139.004 69.8614 139.304C70.5934 139.592 71.1874 140.018 71.6434 140.582C72.0994 141.134 72.3274 141.806 72.3274 142.598C72.3274 143.138 72.2194 143.606 72.0034 144.002C71.7874 144.386 71.5234 144.704 71.2114 144.956C70.8994 145.208 70.5874 145.388 70.2754 145.496V145.604C70.8754 145.82 71.4034 146.168 71.8594 146.648C72.3274 147.116 72.5614 147.752 72.5614 148.556C72.5614 149.396 72.3274 150.116 71.8594 150.716C71.4034 151.304 70.7974 151.754 70.0414 152.066C69.2854 152.378 68.4634 152.534 67.5754 152.534ZM94.7571 152.354V149.636L88.3131 149.618V147.206L94.1091 139.034H97.5471V147.296H99.5991V149.636H97.5471V152.354H94.7571ZM91.0491 147.296H94.7571V142.022L91.0491 147.296ZM107.01 152.534C106.11 152.534 105.342 152.39 104.706 152.102C104.07 151.814 103.548 151.448 103.14 151.004C102.744 150.56 102.45 150.098 102.258 149.618C102.078 149.126 101.988 148.676 101.988 148.268H104.562C104.562 148.268 104.58 148.37 104.616 148.574C104.664 148.778 104.766 149.012 104.922 149.276C105.078 149.54 105.318 149.774 105.642 149.978C105.966 150.182 106.404 150.284 106.956 150.284C107.508 150.284 107.964 150.17 108.324 149.942C108.684 149.702 108.954 149.402 109.134 149.042C109.314 148.682 109.404 148.304 109.404 147.908C109.404 147.5 109.314 147.116 109.134 146.756C108.954 146.384 108.684 146.084 108.324 145.856C107.976 145.616 107.538 145.496 107.01 145.496C106.602 145.496 106.266 145.562 106.002 145.694C105.738 145.814 105.528 145.958 105.372 146.126C105.216 146.282 105.102 146.426 105.03 146.558C104.97 146.678 104.94 146.738 104.94 146.738H102.204L103.374 139.034H111.222V141.446H105.264L104.796 144.488H104.868C104.928 144.428 105.048 144.308 105.228 144.128C105.42 143.948 105.708 143.78 106.092 143.624C106.476 143.456 106.986 143.372 107.622 143.372C108.582 143.372 109.398 143.588 110.07 144.02C110.742 144.452 111.246 145.01 111.582 145.694C111.93 146.366 112.104 147.08 112.104 147.836C112.104 148.424 111.996 148.994 111.78 149.546C111.576 150.098 111.264 150.602 110.844 151.058C110.424 151.502 109.896 151.862 109.26 152.138C108.624 152.402 107.874 152.534 107.01 152.534ZM120.018 152.534C119.094 152.534 118.29 152.372 117.606 152.048C116.922 151.712 116.352 151.262 115.896 150.698C115.452 150.122 115.122 149.474 114.906 148.754C114.69 148.022 114.582 147.26 114.582 146.468C114.582 145.592 114.714 144.71 114.978 143.822C115.254 142.922 115.68 142.1 116.256 141.356C116.844 140.6 117.594 139.994 118.506 139.538C119.418 139.082 120.522 138.854 121.818 138.854C122.346 138.854 122.802 138.89 123.186 138.962C123.57 139.022 123.762 139.052 123.762 139.052V141.518C123.762 141.518 123.66 141.506 123.456 141.482C123.264 141.446 123.018 141.41 122.718 141.374C122.418 141.338 122.118 141.32 121.818 141.32C120.894 141.32 120.12 141.506 119.496 141.878C118.872 142.25 118.392 142.724 118.056 143.3C117.732 143.876 117.54 144.482 117.48 145.118C117.6 144.914 117.786 144.692 118.038 144.452C118.29 144.2 118.626 143.984 119.046 143.804C119.478 143.624 120.018 143.534 120.666 143.534C121.626 143.534 122.43 143.744 123.078 144.164C123.726 144.572 124.212 145.106 124.536 145.766C124.86 146.426 125.022 147.116 125.022 147.836C125.022 148.412 124.914 148.982 124.698 149.546C124.494 150.098 124.182 150.602 123.762 151.058C123.354 151.502 122.838 151.862 122.214 152.138C121.59 152.402 120.858 152.534 120.018 152.534ZM120.018 150.248C120.69 150.248 121.242 150.032 121.674 149.6C122.106 149.168 122.322 148.616 122.322 147.944C122.322 147.26 122.106 146.708 121.674 146.288C121.242 145.856 120.69 145.64 120.018 145.64C119.358 145.64 118.806 145.856 118.362 146.288C117.93 146.708 117.714 147.26 117.714 147.944C117.714 148.616 117.93 149.168 118.362 149.6C118.806 150.032 119.358 150.248 120.018 150.248ZM129.044 152.354C129.104 150.974 129.308 149.702 129.656 148.538C130.004 147.362 130.418 146.312 130.898 145.388C131.378 144.452 131.852 143.654 132.32 142.994C132.788 142.322 133.178 141.806 133.49 141.446H126.902V139.034H136.586V141.014C136.586 141.014 136.43 141.188 136.118 141.536C135.818 141.872 135.44 142.364 134.984 143.012C134.528 143.66 134.066 144.452 133.598 145.388C133.142 146.312 132.746 147.362 132.41 148.538C132.074 149.702 131.876 150.974 131.816 152.354H129.044ZM156.891 152.534C155.979 152.534 155.139 152.384 154.371 152.084C153.615 151.772 153.003 151.334 152.535 150.77C152.079 150.194 151.851 149.504 151.851 148.7C151.851 148.076 151.971 147.554 152.211 147.134C152.451 146.714 152.727 146.384 153.039 146.144C153.351 145.892 153.627 145.718 153.867 145.622C154.119 145.514 154.245 145.46 154.245 145.46V145.352C154.245 145.352 154.137 145.304 153.921 145.208C153.717 145.112 153.477 144.956 153.201 144.74C152.937 144.524 152.703 144.236 152.499 143.876C152.295 143.504 152.193 143.054 152.193 142.526C152.193 141.782 152.397 141.14 152.805 140.6C153.225 140.048 153.789 139.622 154.497 139.322C155.217 139.01 156.015 138.854 156.891 138.854C157.779 138.854 158.577 139.01 159.285 139.322C160.005 139.622 160.569 140.048 160.977 140.6C161.397 141.14 161.607 141.776 161.607 142.508C161.607 143.048 161.499 143.504 161.283 143.876C161.079 144.236 160.839 144.524 160.563 144.74C160.299 144.956 160.059 145.112 159.843 145.208C159.639 145.304 159.537 145.352 159.537 145.352V145.46C159.549 145.46 159.675 145.514 159.915 145.622C160.155 145.718 160.431 145.892 160.743 146.144C161.055 146.384 161.331 146.714 161.571 147.134C161.811 147.554 161.931 148.076 161.931 148.7C161.931 149.504 161.703 150.194 161.247 150.77C160.791 151.334 160.179 151.772 159.411 152.084C158.655 152.384 157.815 152.534 156.891 152.534ZM156.891 144.434C157.491 144.434 157.989 144.272 158.385 143.948C158.793 143.612 158.997 143.198 158.997 142.706C158.997 142.202 158.799 141.788 158.403 141.464C158.007 141.14 157.503 140.978 156.891 140.978C156.291 140.978 155.793 141.14 155.397 141.464C155.001 141.788 154.803 142.202 154.803 142.706C154.803 143.21 155.001 143.624 155.397 143.948C155.793 144.272 156.291 144.434 156.891 144.434ZM156.891 150.374C157.419 150.374 157.857 150.278 158.205 150.086C158.565 149.882 158.829 149.63 158.997 149.33C159.177 149.03 159.267 148.712 159.267 148.376C159.267 148.064 159.177 147.764 158.997 147.476C158.829 147.176 158.565 146.93 158.205 146.738C157.857 146.546 157.419 146.45 156.891 146.45C156.363 146.45 155.925 146.546 155.577 146.738C155.229 146.93 154.965 147.176 154.785 147.476C154.605 147.764 154.515 148.064 154.515 148.376C154.515 148.712 154.605 149.03 154.785 149.33C154.965 149.63 155.229 149.882 155.577 150.086C155.937 150.278 156.375 150.374 156.891 150.374ZM169.365 138.854C170.289 138.854 171.093 139.022 171.777 139.358C172.461 139.682 173.025 140.132 173.469 140.708C173.913 141.272 174.243 141.92 174.459 142.652C174.687 143.372 174.801 144.128 174.801 144.92C174.801 145.796 174.663 146.684 174.387 147.584C174.111 148.472 173.685 149.294 173.109 150.05C172.533 150.794 171.783 151.394 170.859 151.85C169.947 152.306 168.849 152.534 167.565 152.534C167.037 152.534 166.581 152.498 166.197 152.426C165.813 152.366 165.621 152.336 165.621 152.336V149.87C165.621 149.87 165.717 149.888 165.909 149.924C166.113 149.948 166.365 149.978 166.665 150.014C166.965 150.05 167.265 150.068 167.565 150.068C168.489 150.068 169.263 149.882 169.887 149.51C170.511 149.138 170.985 148.664 171.309 148.088C171.645 147.512 171.843 146.906 171.903 146.27C171.783 146.474 171.597 146.702 171.345 146.954C171.093 147.194 170.751 147.404 170.319 147.584C169.899 147.764 169.359 147.854 168.699 147.854C167.751 147.854 166.953 147.65 166.305 147.242C165.657 146.822 165.171 146.282 164.847 145.622C164.523 144.962 164.361 144.272 164.361 143.552C164.361 142.976 164.463 142.412 164.667 141.86C164.883 141.296 165.195 140.792 165.603 140.348C166.023 139.892 166.545 139.532 167.169 139.268C167.793 138.992 168.525 138.854 169.365 138.854ZM169.365 141.14C168.693 141.14 168.141 141.356 167.709 141.788C167.277 142.22 167.061 142.772 167.061 143.444C167.061 144.128 167.277 144.686 167.709 145.118C168.141 145.538 168.693 145.748 169.365 145.748C170.025 145.748 170.571 145.538 171.003 145.118C171.435 144.686 171.651 144.128 171.651 143.444C171.651 142.772 171.435 142.22 171.003 141.788C170.571 141.356 170.025 141.14 169.365 141.14ZM182.544 152.534C181.656 152.534 180.864 152.354 180.168 151.994C179.484 151.634 178.902 151.142 178.422 150.518C177.942 149.882 177.576 149.15 177.324 148.322C177.084 147.494 176.964 146.618 176.964 145.694C176.964 144.758 177.084 143.876 177.324 143.048C177.576 142.22 177.942 141.494 178.422 140.87C178.902 140.234 179.484 139.742 180.168 139.394C180.864 139.034 181.656 138.854 182.544 138.854C183.432 138.854 184.218 139.034 184.902 139.394C185.598 139.742 186.186 140.234 186.666 140.87C187.146 141.494 187.506 142.22 187.746 143.048C187.998 143.876 188.124 144.758 188.124 145.694C188.124 146.618 187.998 147.494 187.746 148.322C187.506 149.15 187.146 149.882 186.666 150.518C186.186 151.142 185.598 151.634 184.902 151.994C184.218 152.354 183.432 152.534 182.544 152.534ZM182.544 150.068C183.336 150.068 183.984 149.702 184.488 148.97C185.004 148.238 185.262 147.146 185.262 145.694C185.262 144.242 185.004 143.15 184.488 142.418C183.984 141.686 183.336 141.32 182.544 141.32C181.752 141.32 181.098 141.686 180.582 142.418C180.078 143.15 179.826 144.242 179.826 145.694C179.826 147.146 180.078 148.238 180.582 148.97C181.098 149.702 181.752 150.068 182.544 150.068ZM195.31 139.034V152.354H192.538V142.814L189.964 142.832V141.158L190.378 141.032C191.134 140.816 191.746 140.57 192.214 140.294C192.682 140.018 193.132 139.652 193.564 139.196L193.69 139.034H195.31ZM211.889 152.354V150.446L214.193 148.484C215.153 147.68 215.975 146.996 216.659 146.432C217.343 145.868 217.865 145.34 218.225 144.848C218.585 144.356 218.765 143.828 218.765 143.264C218.765 142.832 218.663 142.472 218.459 142.184C218.255 141.884 217.991 141.662 217.667 141.518C217.355 141.362 217.025 141.284 216.677 141.284C216.257 141.284 215.903 141.362 215.615 141.518C215.339 141.674 215.117 141.878 214.949 142.13C214.793 142.37 214.679 142.622 214.607 142.886C214.535 143.15 214.499 143.378 214.499 143.57H211.835C211.835 143.066 211.931 142.544 212.123 142.004C212.315 141.452 212.609 140.942 213.005 140.474C213.401 139.994 213.911 139.604 214.535 139.304C215.159 139.004 215.903 138.854 216.767 138.854C217.643 138.854 218.441 139.028 219.161 139.376C219.881 139.712 220.457 140.198 220.889 140.834C221.333 141.47 221.555 142.22 221.555 143.084C221.555 143.9 221.351 144.644 220.943 145.316C220.547 145.976 219.989 146.624 219.269 147.26C218.549 147.884 217.721 148.562 216.785 149.294L216.029 149.924H221.735V152.354H211.889ZM229.296 152.534C228.432 152.534 227.7 152.426 227.1 152.21C226.512 151.994 226.032 151.712 225.66 151.364C225.288 151.016 224.994 150.65 224.778 150.266C224.574 149.87 224.43 149.498 224.346 149.15C224.274 148.79 224.238 148.496 224.238 148.268H226.866C226.866 148.52 226.938 148.802 227.082 149.114C227.226 149.414 227.466 149.678 227.802 149.906C228.15 150.134 228.636 150.248 229.26 150.248C229.908 150.248 230.442 150.08 230.862 149.744C231.294 149.408 231.51 148.958 231.51 148.394C231.51 147.89 231.324 147.476 230.952 147.152C230.592 146.816 230.076 146.648 229.404 146.648H227.604V144.506H229.422C229.998 144.506 230.46 144.35 230.808 144.038C231.156 143.714 231.33 143.318 231.33 142.85C231.33 142.358 231.132 141.95 230.736 141.626C230.34 141.29 229.848 141.122 229.26 141.122C228.708 141.122 228.27 141.242 227.946 141.482C227.634 141.722 227.406 142.004 227.262 142.328C227.13 142.652 227.064 142.934 227.064 143.174H224.49C224.49 142.958 224.526 142.67 224.598 142.31C224.682 141.95 224.826 141.572 225.03 141.176C225.234 140.78 225.516 140.408 225.876 140.06C226.236 139.7 226.692 139.412 227.244 139.196C227.808 138.968 228.492 138.854 229.296 138.854C230.1 138.854 230.862 139.004 231.582 139.304C232.314 139.592 232.908 140.018 233.364 140.582C233.82 141.134 234.048 141.806 234.048 142.598C234.048 143.138 233.94 143.606 233.724 144.002C233.508 144.386 233.244 144.704 232.932 144.956C232.62 145.208 232.308 145.388 231.996 145.496V145.604C232.596 145.82 233.124 146.168 233.58 146.648C234.048 147.116 234.282 147.752 234.282 148.556C234.282 149.396 234.048 150.116 233.58 150.716C233.124 151.304 232.518 151.754 231.762 152.066C231.006 152.378 230.184 152.534 229.296 152.534ZM242.953 152.354V149.636L236.509 149.618V147.206L242.305 139.034H245.743V147.296H247.795V149.636H245.743V152.354H242.953ZM239.245 147.296H242.953V142.022L239.245 147.296ZM255.206 152.534C254.306 152.534 253.538 152.39 252.902 152.102C252.266 151.814 251.744 151.448 251.336 151.004C250.94 150.56 250.646 150.098 250.454 149.618C250.274 149.126 250.184 148.676 250.184 148.268H252.758C252.758 148.268 252.776 148.37 252.812 148.574C252.86 148.778 252.962 149.012 253.118 149.276C253.274 149.54 253.514 149.774 253.838 149.978C254.162 150.182 254.6 150.284 255.152 150.284C255.704 150.284 256.16 150.17 256.52 149.942C256.88 149.702 257.15 149.402 257.33 149.042C257.51 148.682 257.6 148.304 257.6 147.908C257.6 147.5 257.51 147.116 257.33 146.756C257.15 146.384 256.88 146.084 256.52 145.856C256.172 145.616 255.734 145.496 255.206 145.496C254.798 145.496 254.462 145.562 254.198 145.694C253.934 145.814 253.724 145.958 253.568 146.126C253.412 146.282 253.298 146.426 253.226 146.558C253.166 146.678 253.136 146.738 253.136 146.738H250.4L251.57 139.034H259.418V141.446H253.46L252.992 144.488H253.064C253.124 144.428 253.244 144.308 253.424 144.128C253.616 143.948 253.904 143.78 254.288 143.624C254.672 143.456 255.182 143.372 255.818 143.372C256.778 143.372 257.594 143.588 258.266 144.02C258.938 144.452 259.442 145.01 259.778 145.694C260.126 146.366 260.3 147.08 260.3 147.836C260.3 148.424 260.192 148.994 259.976 149.546C259.772 150.098 259.46 150.602 259.04 151.058C258.62 151.502 258.092 151.862 257.456 152.138C256.82 152.402 256.07 152.534 255.206 152.534Z" fill="white"/>
<path d="M33.9869 181.263C33.3149 181.263 32.7409 181.184 32.2649 181.025C31.7982 180.857 31.4062 180.647 31.0889 180.395C30.7809 180.134 30.5336 179.863 30.3469 179.583C30.1602 179.294 30.0202 179.023 29.9269 178.771C29.8429 178.51 29.7869 178.3 29.7589 178.141C29.7402 177.973 29.7309 177.889 29.7309 177.889H31.9149C31.9149 177.889 31.9336 177.968 31.9709 178.127C32.0176 178.286 32.1109 178.472 32.2509 178.687C32.3909 178.892 32.6056 179.074 32.8949 179.233C33.1842 179.382 33.5762 179.457 34.0709 179.457C34.6776 179.457 35.1256 179.331 35.4149 179.079C35.7042 178.818 35.8489 178.51 35.8489 178.155C35.8489 177.838 35.7369 177.586 35.5129 177.399C35.2982 177.212 34.9622 177.072 34.5049 176.979L33.1189 176.713C32.5589 176.61 32.0362 176.447 31.5509 176.223C31.0749 175.999 30.6876 175.691 30.3889 175.299C30.0902 174.898 29.9409 174.384 29.9409 173.759C29.9409 173.124 30.0996 172.574 30.4169 172.107C30.7342 171.631 31.1776 171.267 31.7469 171.015C32.3256 170.754 33.0022 170.623 33.7769 170.623C34.5049 170.623 35.1069 170.73 35.5829 170.945C36.0682 171.15 36.4509 171.407 36.7309 171.715C37.0202 172.014 37.2302 172.317 37.3609 172.625C37.5009 172.933 37.5896 173.19 37.6269 173.395C37.6736 173.6 37.6969 173.703 37.6969 173.703H35.5689C35.5689 173.703 35.5502 173.638 35.5129 173.507C35.4849 173.376 35.4102 173.227 35.2889 173.059C35.1676 172.891 34.9809 172.742 34.7289 172.611C34.4862 172.48 34.1502 172.415 33.7209 172.415C33.1329 172.415 32.7082 172.546 32.4469 172.807C32.1856 173.059 32.0549 173.334 32.0549 173.633C32.0549 173.941 32.1856 174.179 32.4469 174.347C32.7082 174.515 33.0489 174.641 33.4689 174.725L34.9389 175.019C35.4989 175.122 36.0122 175.294 36.4789 175.537C36.9456 175.78 37.3142 176.106 37.5849 176.517C37.8649 176.918 38.0049 177.418 38.0049 178.015C38.0049 178.631 37.8509 179.186 37.5429 179.681C37.2349 180.166 36.7822 180.554 36.1849 180.843C35.5876 181.123 34.8549 181.263 33.9869 181.263ZM38.546 181.123L42.074 170.763H44.944L48.472 181.123H46.204L45.546 179.093H41.486L40.814 181.123H38.546ZM42.088 177.217H44.944L43.516 172.891L42.088 177.217ZM54.0517 181.263C53.2957 181.263 52.5957 181.118 51.9517 180.829C51.3171 180.54 50.8037 180.092 50.4117 179.485C50.0291 178.878 49.8377 178.09 49.8377 177.119V170.763H51.9937V177.119C51.9937 177.716 52.1617 178.22 52.4977 178.631C52.8337 179.032 53.3517 179.233 54.0517 179.233C54.7517 179.233 55.2651 179.032 55.5917 178.631C55.9277 178.22 56.0957 177.716 56.0957 177.119V170.763H58.2657V177.119C58.2657 178.09 58.0697 178.878 57.6777 179.485C57.2951 180.092 56.7817 180.54 56.1377 180.829C55.4937 181.118 54.7984 181.263 54.0517 181.263ZM60.1737 181.123V170.763H62.3297V179.247H67.3977V181.123H60.1737ZM77.2123 181.263C76.3443 181.263 75.5837 181.114 74.9303 180.815C74.277 180.516 73.731 180.115 73.2923 179.611C72.863 179.098 72.541 178.528 72.3263 177.903C72.1117 177.268 72.0043 176.62 72.0043 175.957C72.0043 175.294 72.1117 174.646 72.3263 174.011C72.5503 173.376 72.877 172.807 73.3063 172.303C73.745 171.79 74.2957 171.384 74.9583 171.085C75.621 170.777 76.3957 170.623 77.2823 170.623C77.973 170.623 78.5657 170.712 79.0603 170.889C79.5643 171.057 79.9843 171.281 80.3203 171.561C80.6563 171.832 80.9223 172.121 81.1183 172.429C81.3237 172.737 81.4777 173.031 81.5803 173.311C81.6923 173.582 81.7623 173.806 81.7903 173.983C81.8277 174.151 81.8463 174.235 81.8463 174.235H79.7043C79.7043 174.235 79.6763 174.151 79.6203 173.983C79.5643 173.815 79.4523 173.619 79.2843 173.395C79.1163 173.162 78.869 172.961 78.5423 172.793C78.225 172.616 77.805 172.527 77.2823 172.527C76.601 172.527 76.0317 172.695 75.5743 173.031C75.1263 173.358 74.7857 173.782 74.5523 174.305C74.3283 174.818 74.2163 175.355 74.2163 175.915C74.2163 176.494 74.333 177.049 74.5663 177.581C74.7997 178.104 75.1403 178.533 75.5883 178.869C76.0457 179.196 76.615 179.359 77.2963 179.359C78.043 179.359 78.631 179.168 79.0603 178.785C79.499 178.402 79.7603 177.884 79.8443 177.231H77.1563V175.537H81.9723V176.335C81.9723 177.418 81.7623 178.328 81.3423 179.065C80.9317 179.793 80.367 180.344 79.6483 180.717C78.939 181.081 78.127 181.263 77.2123 181.263ZM88.3009 181.263C87.4422 181.263 86.6862 181.114 86.0329 180.815C85.3795 180.507 84.8289 180.101 84.3809 179.597C83.9422 179.084 83.6109 178.51 83.3869 177.875C83.1722 177.24 83.0649 176.592 83.0649 175.929C83.0649 175.266 83.1722 174.622 83.3869 173.997C83.6109 173.362 83.9422 172.793 84.3809 172.289C84.8289 171.785 85.3795 171.384 86.0329 171.085C86.6862 170.777 87.4422 170.623 88.3009 170.623C89.1689 170.623 89.9295 170.777 90.5829 171.085C91.2362 171.384 91.7822 171.785 92.2209 172.289C92.6596 172.793 92.9862 173.362 93.2009 173.997C93.4249 174.622 93.5369 175.266 93.5369 175.929C93.5369 176.592 93.4249 177.24 93.2009 177.875C92.9862 178.51 92.6596 179.084 92.2209 179.597C91.7822 180.101 91.2362 180.507 90.5829 180.815C89.9295 181.114 89.1689 181.263 88.3009 181.263ZM88.3009 179.317C88.9542 179.317 89.5049 179.154 89.9529 178.827C90.4009 178.5 90.7369 178.08 90.9609 177.567C91.1849 177.044 91.2969 176.498 91.2969 175.929C91.2969 175.36 91.1849 174.818 90.9609 174.305C90.7369 173.792 90.4009 173.372 89.9529 173.045C89.5049 172.718 88.9542 172.555 88.3009 172.555C87.6475 172.555 87.0969 172.718 86.6489 173.045C86.2102 173.372 85.8789 173.792 85.6549 174.305C85.4309 174.818 85.3189 175.36 85.3189 175.929C85.3189 176.498 85.4309 177.044 85.6549 177.567C85.8789 178.08 86.2102 178.5 86.6489 178.827C87.0969 179.154 87.6475 179.317 88.3009 179.317ZM99.8946 181.263C99.036 181.263 98.28 181.114 97.6266 180.815C96.9733 180.507 96.4226 180.101 95.9746 179.597C95.536 179.084 95.2046 178.51 94.9806 177.875C94.766 177.24 94.6586 176.592 94.6586 175.929C94.6586 175.266 94.766 174.622 94.9806 173.997C95.2046 173.362 95.536 172.793 95.9746 172.289C96.4226 171.785 96.9733 171.384 97.6266 171.085C98.28 170.777 99.036 170.623 99.8946 170.623C100.763 170.623 101.523 170.777 102.177 171.085C102.83 171.384 103.376 171.785 103.815 172.289C104.253 172.793 104.58 173.362 104.795 173.997C105.019 174.622 105.131 175.266 105.131 175.929C105.131 176.592 105.019 177.24 104.795 177.875C104.58 178.51 104.253 179.084 103.815 179.597C103.376 180.101 102.83 180.507 102.177 180.815C101.523 181.114 100.763 181.263 99.8946 181.263ZM99.8946 179.317C100.548 179.317 101.099 179.154 101.547 178.827C101.995 178.5 102.331 178.08 102.555 177.567C102.779 177.044 102.891 176.498 102.891 175.929C102.891 175.36 102.779 174.818 102.555 174.305C102.331 173.792 101.995 173.372 101.547 173.045C101.099 172.718 100.548 172.555 99.8946 172.555C99.2413 172.555 98.6906 172.718 98.2426 173.045C97.804 173.372 97.4726 173.792 97.2486 174.305C97.0246 174.818 96.9126 175.36 96.9126 175.929C96.9126 176.498 97.0246 177.044 97.2486 177.567C97.4726 178.08 97.804 178.5 98.2426 178.827C98.6906 179.154 99.2413 179.317 99.8946 179.317ZM106.644 181.123V170.763H110.564C111.404 170.763 112.142 170.912 112.776 171.211C113.42 171.5 113.952 171.892 114.372 172.387C114.792 172.882 115.11 173.437 115.324 174.053C115.539 174.669 115.646 175.299 115.646 175.943C115.646 176.587 115.539 177.217 115.324 177.833C115.11 178.449 114.792 179.004 114.372 179.499C113.952 179.994 113.42 180.39 112.776 180.689C112.142 180.978 111.404 181.123 110.564 181.123H106.644ZM110.466 172.653H108.8V179.205H110.466C111.148 179.205 111.708 179.046 112.146 178.729C112.594 178.412 112.926 178.001 113.14 177.497C113.364 176.993 113.476 176.47 113.476 175.929C113.476 175.388 113.364 174.87 113.14 174.375C112.926 173.871 112.594 173.46 112.146 173.143C111.708 172.816 111.148 172.653 110.466 172.653ZM117.158 181.123V170.763H120.07L122.436 176.097L124.872 170.763H127.686V181.123H125.558V174.067L123.43 178.701H121.428L119.286 174.039V181.123H117.158ZM129.054 181.123L132.582 170.763H135.452L138.98 181.123H136.712L136.054 179.093H131.994L131.322 181.123H129.054ZM132.596 177.217H135.452L134.024 172.891L132.596 177.217ZM141.696 181.123V172.639H138.518V170.763H147.03V172.639H143.852V181.123H141.696ZM148.521 181.123V170.763H155.661V172.639H150.677V174.963H155.017V176.769H150.677V179.247H155.731V181.123H148.521Z" fill="white"/>
<path d="M285.388 180.484C284.698 180.484 284.082 180.344 283.54 180.064C283.008 179.784 282.556 179.402 282.182 178.916C281.809 178.422 281.524 177.852 281.328 177.208C281.142 176.564 281.048 175.883 281.048 175.164C281.048 174.436 281.142 173.75 281.328 173.106C281.524 172.462 281.809 171.898 282.182 171.412C282.556 170.918 283.008 170.535 283.54 170.264C284.082 169.984 284.698 169.844 285.388 169.844C286.079 169.844 286.69 169.984 287.222 170.264C287.764 170.535 288.221 170.918 288.594 171.412C288.968 171.898 289.248 172.462 289.434 173.106C289.63 173.75 289.728 174.436 289.728 175.164C289.728 175.883 289.63 176.564 289.434 177.208C289.248 177.852 288.968 178.422 288.594 178.916C288.221 179.402 287.764 179.784 287.222 180.064C286.69 180.344 286.079 180.484 285.388 180.484ZM285.388 178.566C286.004 178.566 286.508 178.282 286.9 177.712C287.302 177.143 287.502 176.294 287.502 175.164C287.502 174.035 287.302 173.186 286.9 172.616C286.508 172.047 286.004 171.762 285.388 171.762C284.772 171.762 284.264 172.047 283.862 172.616C283.47 173.186 283.274 174.035 283.274 175.164C283.274 176.294 283.47 177.143 283.862 177.712C284.264 178.282 284.772 178.566 285.388 178.566ZM295.023 169.844C295.742 169.844 296.367 169.975 296.899 170.236C297.431 170.488 297.87 170.838 298.215 171.286C298.56 171.725 298.817 172.229 298.985 172.798C299.162 173.358 299.251 173.946 299.251 174.562C299.251 175.244 299.144 175.934 298.929 176.634C298.714 177.325 298.383 177.964 297.935 178.552C297.487 179.131 296.904 179.598 296.185 179.952C295.476 180.307 294.622 180.484 293.623 180.484C293.212 180.484 292.858 180.456 292.559 180.4C292.26 180.354 292.111 180.33 292.111 180.33V178.412C292.111 178.412 292.186 178.426 292.335 178.454C292.494 178.473 292.69 178.496 292.923 178.524C293.156 178.552 293.39 178.566 293.623 178.566C294.342 178.566 294.944 178.422 295.429 178.132C295.914 177.843 296.283 177.474 296.535 177.026C296.796 176.578 296.95 176.107 296.997 175.612C296.904 175.771 296.759 175.948 296.563 176.144C296.367 176.331 296.101 176.494 295.765 176.634C295.438 176.774 295.018 176.844 294.505 176.844C293.768 176.844 293.147 176.686 292.643 176.368C292.139 176.042 291.761 175.622 291.509 175.108C291.257 174.595 291.131 174.058 291.131 173.498C291.131 173.05 291.21 172.612 291.369 172.182C291.537 171.744 291.78 171.352 292.097 171.006C292.424 170.652 292.83 170.372 293.315 170.166C293.8 169.952 294.37 169.844 295.023 169.844ZM295.023 171.622C294.5 171.622 294.071 171.79 293.735 172.126C293.399 172.462 293.231 172.892 293.231 173.414C293.231 173.946 293.399 174.38 293.735 174.716C294.071 175.043 294.5 175.206 295.023 175.206C295.536 175.206 295.961 175.043 296.297 174.716C296.633 174.38 296.801 173.946 296.801 173.414C296.801 172.892 296.633 172.462 296.297 172.126C295.961 171.79 295.536 171.622 295.023 171.622ZM300.57 182.878L305.442 168.738H307.36L302.488 182.878H300.57ZM308.207 180.344V178.86L309.999 177.334C310.745 176.709 311.385 176.177 311.917 175.738C312.449 175.3 312.855 174.889 313.135 174.506C313.415 174.124 313.555 173.713 313.555 173.274C313.555 172.938 313.475 172.658 313.317 172.434C313.158 172.201 312.953 172.028 312.701 171.916C312.458 171.795 312.201 171.734 311.931 171.734C311.604 171.734 311.329 171.795 311.105 171.916C310.89 172.038 310.717 172.196 310.587 172.392C310.465 172.579 310.377 172.775 310.321 172.98C310.265 173.186 310.237 173.363 310.237 173.512H308.165C308.165 173.12 308.239 172.714 308.389 172.294C308.538 171.865 308.767 171.468 309.075 171.104C309.383 170.731 309.779 170.428 310.265 170.194C310.75 169.961 311.329 169.844 312.001 169.844C312.682 169.844 313.303 169.98 313.863 170.25C314.423 170.512 314.871 170.89 315.207 171.384C315.552 171.879 315.725 172.462 315.725 173.134C315.725 173.769 315.566 174.348 315.249 174.87C314.941 175.384 314.507 175.888 313.947 176.382C313.387 176.868 312.743 177.395 312.015 177.964L311.427 178.454H315.865V180.344H308.207ZM321.353 180.484C320.644 180.484 319.991 180.368 319.393 180.134C318.805 179.892 318.329 179.551 317.965 179.112C317.611 178.664 317.433 178.128 317.433 177.502C317.433 177.017 317.527 176.611 317.713 176.284C317.9 175.958 318.115 175.701 318.357 175.514C318.6 175.318 318.815 175.183 319.001 175.108C319.197 175.024 319.295 174.982 319.295 174.982V174.898C319.295 174.898 319.211 174.861 319.043 174.786C318.885 174.712 318.698 174.59 318.483 174.422C318.278 174.254 318.096 174.03 317.937 173.75C317.779 173.461 317.699 173.111 317.699 172.7C317.699 172.122 317.858 171.622 318.175 171.202C318.502 170.773 318.941 170.442 319.491 170.208C320.051 169.966 320.672 169.844 321.353 169.844C322.044 169.844 322.665 169.966 323.215 170.208C323.775 170.442 324.214 170.773 324.531 171.202C324.858 171.622 325.021 172.117 325.021 172.686C325.021 173.106 324.937 173.461 324.769 173.75C324.611 174.03 324.424 174.254 324.209 174.422C324.004 174.59 323.817 174.712 323.649 174.786C323.491 174.861 323.411 174.898 323.411 174.898V174.982C323.421 174.982 323.519 175.024 323.705 175.108C323.892 175.183 324.107 175.318 324.349 175.514C324.592 175.701 324.807 175.958 324.993 176.284C325.18 176.611 325.273 177.017 325.273 177.502C325.273 178.128 325.096 178.664 324.741 179.112C324.387 179.551 323.911 179.892 323.313 180.134C322.725 180.368 322.072 180.484 321.353 180.484ZM321.353 174.184C321.82 174.184 322.207 174.058 322.515 173.806C322.833 173.545 322.991 173.223 322.991 172.84C322.991 172.448 322.837 172.126 322.529 171.874C322.221 171.622 321.829 171.496 321.353 171.496C320.887 171.496 320.499 171.622 320.191 171.874C319.883 172.126 319.729 172.448 319.729 172.84C319.729 173.232 319.883 173.554 320.191 173.806C320.499 174.058 320.887 174.184 321.353 174.184ZM321.353 178.804C321.764 178.804 322.105 178.73 322.375 178.58C322.655 178.422 322.861 178.226 322.991 177.992C323.131 177.759 323.201 177.512 323.201 177.25C323.201 177.008 323.131 176.774 322.991 176.55C322.861 176.317 322.655 176.126 322.375 175.976C322.105 175.827 321.764 175.752 321.353 175.752C320.943 175.752 320.602 175.827 320.331 175.976C320.061 176.126 319.855 176.317 319.715 176.55C319.575 176.774 319.505 177.008 319.505 177.25C319.505 177.512 319.575 177.759 319.715 177.992C319.855 178.226 320.061 178.422 320.331 178.58C320.611 178.73 320.952 178.804 321.353 178.804Z" fill="white"/>
<path d="M331.876 109.107C335.637 105.431 337.749 100.453 337.749 95.2627C337.749 90.0727 335.637 85.0943 331.876 81.418C331.765 81.309 331.633 81.2223 331.487 81.1629C331.341 81.1036 331.185 81.0728 331.027 81.0723C330.87 81.0717 330.713 81.1015 330.567 81.1598C330.421 81.2182 330.288 81.3039 330.176 81.4123C330.064 81.5206 329.975 81.6494 329.914 81.7912C329.854 81.933 329.822 82.0851 329.821 82.2389C329.821 82.3926 329.851 82.5449 329.911 82.6872C329.971 82.8294 330.059 82.9588 330.17 83.0679C333.476 86.3098 335.331 90.6936 335.331 95.2627C335.331 99.8318 333.476 104.216 330.17 107.458C330.054 107.565 329.961 107.695 329.898 107.839C329.834 107.983 329.802 108.137 329.802 108.294C329.802 108.45 329.834 108.605 329.898 108.749C329.961 108.893 330.054 109.023 330.17 109.13C330.281 109.242 330.413 109.331 330.56 109.392C330.706 109.452 330.864 109.483 331.023 109.483C331.182 109.483 331.34 109.452 331.487 109.392C331.633 109.331 331.766 109.242 331.876 109.13V109.107Z" fill="white"/>
<path d="M327.968 85.1908C327.858 85.0773 327.724 84.987 327.577 84.9252C327.429 84.8635 327.27 84.8317 327.109 84.8317C326.949 84.8317 326.79 84.8635 326.642 84.9252C326.495 84.987 326.361 85.0773 326.251 85.1908C326.134 85.2986 326.041 85.4283 325.978 85.5721C325.915 85.7159 325.882 85.8708 325.882 86.0273C325.882 86.1838 325.915 86.3386 325.978 86.4824C326.041 86.6262 326.134 86.756 326.251 86.8637C328.531 89.0877 329.812 92.1025 329.812 95.2459C329.812 98.3892 328.531 101.404 326.251 103.628C326.07 103.788 325.944 103.998 325.89 104.23C325.837 104.462 325.858 104.705 325.951 104.924C326.045 105.144 326.206 105.33 326.412 105.458C326.618 105.585 326.86 105.647 327.103 105.636C327.264 105.638 327.424 105.609 327.572 105.549C327.721 105.49 327.856 105.401 327.968 105.289C330.698 102.621 332.231 99.0073 332.231 95.2401C332.231 91.4729 330.698 87.8593 327.968 85.1908Z" fill="white"/>
<path d="M324.213 88.8366C323.987 88.6163 323.68 88.4926 323.36 88.4926C323.041 88.4926 322.734 88.6163 322.508 88.8366C322.281 89.057 322.154 89.3558 322.154 89.6674C322.154 89.9789 322.281 90.2778 322.508 90.4981C323.792 91.7544 324.513 93.4554 324.513 95.2285C324.513 97.0017 323.792 98.7026 322.508 99.959C322.281 100.179 322.154 100.478 322.154 100.79C322.154 101.101 322.281 101.4 322.508 101.62C322.734 101.841 323.041 101.964 323.36 101.964C323.68 101.964 323.987 101.841 324.213 101.62C325.952 99.9244 326.929 97.6254 326.929 95.2285C326.929 92.8316 325.952 90.5327 324.213 88.8366Z" fill="white"/>
<path d="M320.955 95.2398C320.955 94.7834 320.816 94.3373 320.555 93.9578C320.295 93.5783 319.925 93.2826 319.492 93.1079C319.059 92.9332 318.583 92.8876 318.124 92.9766C317.664 93.0656 317.242 93.2854 316.911 93.6081C316.579 93.9308 316.354 94.342 316.262 94.7896C316.171 95.2372 316.218 95.7012 316.397 96.1228C316.576 96.5445 316.88 96.9049 317.27 97.1584C317.659 97.412 318.117 97.5473 318.586 97.5473C319.214 97.5473 319.817 97.3042 320.261 96.8715C320.705 96.4387 320.955 95.8518 320.955 95.2398Z" fill="white"/>
<path d="M58.4269 85.537C56.5021 85.54 54.6571 86.2861 53.2961 87.6118C51.9351 88.9374 51.1691 90.7345 51.166 92.6093V106.927C51.166 108.803 51.931 110.602 53.2927 111.928C54.6544 113.254 56.5012 113.999 58.4269 113.999C60.3526 113.999 62.1994 113.254 63.5611 111.928C64.9228 110.602 65.6878 108.803 65.6878 106.927V92.6093C65.6846 90.7345 64.9187 88.9374 63.5577 87.6118C62.1967 86.2861 60.3516 85.54 58.4269 85.537Z" fill="url(#paint3_linear_173_292)"/>
<path d="M58.4267 84.5448C60.444 84.5492 62.3905 85.2699 63.9015 86.5718C65.4125 87.8738 66.3844 89.6676 66.6352 91.6174H74.4646V81.3027H42.377V91.6174H50.2064C50.4574 89.6657 51.431 87.8702 52.9445 86.568C54.458 85.2658 56.4073 84.5464 58.4267 84.5448Z" fill="url(#paint4_linear_173_292)"/>
<path d="M75.4834 91.6173H86.3096V86.5292C86.3096 85.8458 86.1714 85.1692 85.9029 84.5379C85.6345 83.9066 85.241 83.3329 84.7449 82.8498C84.2489 82.3666 83.66 81.9833 83.0119 81.7218C82.3637 81.4603 81.6691 81.3257 80.9676 81.3257H75.4834V91.6173Z" fill="url(#paint5_linear_173_292)"/>
<path d="M58.4267 115.003C56.4055 115.001 54.4547 114.28 52.9409 112.976C51.4271 111.671 50.4547 109.873 50.2064 107.919H42.377V118.245H74.4646V107.919H66.6352C66.3871 109.871 65.4164 111.668 63.9051 112.972C62.3938 114.276 60.4458 114.998 58.4267 115.003Z" fill="url(#paint6_linear_173_292)"/>
<path d="M86.3092 92.6093H66.7061V106.928H86.3092V92.6093Z" fill="url(#paint7_linear_173_292)"/>
<path d="M41.3583 107.919H30.5439V113.065C30.5439 114.445 31.1068 115.768 32.1086 116.744C33.1104 117.72 34.4692 118.268 35.886 118.268H41.3583V107.919Z" fill="url(#paint8_linear_173_292)"/>
<path d="M75.4834 107.919V118.245H80.9676C82.3802 118.245 83.7354 117.7 84.7366 116.729C85.7377 115.759 86.3033 114.441 86.3096 113.065V107.919H75.4834Z" fill="url(#paint9_linear_173_292)"/>
<path d="M30.5439 106.928H50.1471V92.6093H30.5439V106.928Z" fill="url(#paint10_linear_173_292)"/>
<path d="M41.3583 91.6174V81.3027H35.886C35.1825 81.3027 34.4859 81.4381 33.8362 81.701C33.1866 81.964 32.5966 82.3493 32.1002 82.835C31.6039 83.3206 31.2109 83.8969 30.9438 84.5309C30.6768 85.1649 30.5409 85.844 30.544 86.5293V91.6405L41.3583 91.6174Z" fill="url(#paint11_linear_173_292)"/>
<path d="M36.287 62.3661C35.575 62.3661 34.951 62.2381 34.415 61.9821C33.887 61.7181 33.443 61.3701 33.083 60.9381C32.731 60.4981 32.463 60.0101 32.279 59.4741C32.103 58.9301 32.015 58.3741 32.015 57.8061C32.015 57.2381 32.103 56.6821 32.279 56.1381C32.463 55.5941 32.731 55.1061 33.083 54.6741C33.443 54.2341 33.887 53.8861 34.415 53.6301C34.951 53.3741 35.575 53.2461 36.287 53.2461C36.871 53.2461 37.371 53.3221 37.787 53.4741C38.211 53.6261 38.563 53.8221 38.843 54.0621C39.131 54.2941 39.359 54.5421 39.527 54.8061C39.703 55.0701 39.831 55.3221 39.911 55.5621C39.999 55.8021 40.059 55.9981 40.091 56.1501C40.123 56.2941 40.139 56.3661 40.139 56.3661H38.735C38.735 56.3661 38.719 56.3061 38.687 56.1861C38.663 56.0581 38.603 55.9021 38.507 55.7181C38.419 55.5341 38.283 55.3541 38.099 55.1781C37.923 54.9941 37.687 54.8421 37.391 54.7221C37.103 54.5941 36.739 54.5301 36.299 54.5301C35.827 54.5301 35.411 54.6221 35.051 54.8061C34.699 54.9901 34.403 55.2381 34.163 55.5501C33.923 55.8621 33.743 56.2141 33.623 56.6061C33.511 56.9981 33.455 57.3981 33.455 57.8061C33.455 58.2141 33.511 58.6141 33.623 59.0061C33.743 59.3901 33.923 59.7421 34.163 60.0621C34.403 60.3741 34.699 60.6221 35.051 60.8061C35.411 60.9901 35.827 61.0821 36.299 61.0821C36.739 61.0821 37.103 61.0221 37.391 60.9021C37.687 60.7741 37.923 60.6181 38.099 60.4341C38.283 60.2501 38.419 60.0661 38.507 59.8821C38.603 59.6981 38.663 59.5461 38.687 59.4261C38.719 59.2981 38.735 59.2341 38.735 59.2341H40.139C40.139 59.2341 40.123 59.3101 40.091 59.4621C40.059 59.6141 39.999 59.8101 39.911 60.0501C39.831 60.2821 39.703 60.5341 39.527 60.8061C39.359 61.0701 39.131 61.3221 38.843 61.5621C38.563 61.7941 38.211 61.9861 37.787 62.1381C37.371 62.2901 36.871 62.3661 36.287 62.3661ZM41.6552 62.2461V53.3661H44.9552C45.5872 53.3661 46.1192 53.4901 46.5512 53.7381C46.9912 53.9781 47.3232 54.2981 47.5472 54.6981C47.7712 55.0901 47.8832 55.5181 47.8832 55.9821C47.8832 56.5421 47.7232 57.0501 47.4032 57.5061C47.0912 57.9621 46.6312 58.2821 46.0232 58.4661L48.1592 62.2461H46.5872L44.5712 58.6221H43.0592V62.2461H41.6552ZM44.9312 54.5901H43.0592V57.4461H44.9312C45.4352 57.4461 45.8152 57.3021 46.0712 57.0141C46.3272 56.7181 46.4552 56.3861 46.4552 56.0181C46.4552 55.6501 46.3272 55.3221 46.0712 55.0341C45.8152 54.7381 45.4352 54.5901 44.9312 54.5901ZM49.8466 62.2461V53.3661H55.6426V54.5901H51.2506V57.1221H55.0906V58.3341H51.2506V61.0221H55.7026V62.2461H49.8466ZM57.37 62.2461V53.3661H60.406C61.118 53.3661 61.742 53.4941 62.278 53.7501C62.814 53.9981 63.258 54.3341 63.61 54.7581C63.97 55.1821 64.238 55.6581 64.414 56.1861C64.598 56.7141 64.69 57.2541 64.69 57.8061C64.69 58.3581 64.598 58.8981 64.414 59.4261C64.238 59.9541 63.97 60.4301 63.61 60.8541C63.258 61.2781 62.814 61.6181 62.278 61.8741C61.742 62.1221 61.118 62.2461 60.406 62.2461H57.37ZM60.346 54.5901H58.774V61.0101H60.346C60.842 61.0101 61.274 60.9221 61.642 60.7461C62.01 60.5621 62.314 60.3181 62.554 60.0141C62.794 59.7021 62.974 59.3581 63.094 58.9821C63.222 58.5981 63.286 58.2061 63.286 57.8061C63.286 57.4061 63.222 57.0141 63.094 56.6301C62.974 56.2461 62.794 55.9021 62.554 55.5981C62.314 55.2941 62.01 55.0501 61.642 54.8661C61.274 54.6821 60.842 54.5901 60.346 54.5901ZM66.2059 62.2461V53.3661H67.6099V62.2461H66.2059ZM71.7926 62.2461V54.5901H69.0326V53.3661H75.9446V54.5901H73.1846V62.2461H71.7926ZM84.0995 62.3661C83.3875 62.3661 82.7635 62.2381 82.2275 61.9821C81.6995 61.7181 81.2555 61.3701 80.8955 60.9381C80.5435 60.4981 80.2755 60.0101 80.0915 59.4741C79.9155 58.9301 79.8275 58.3741 79.8275 57.8061C79.8275 57.2381 79.9155 56.6821 80.0915 56.1381C80.2755 55.5941 80.5435 55.1061 80.8955 54.6741C81.2555 54.2341 81.6995 53.8861 82.2275 53.6301C82.7635 53.3741 83.3875 53.2461 84.0995 53.2461C84.6835 53.2461 85.1835 53.3221 85.5995 53.4741C86.0235 53.6261 86.3755 53.8221 86.6555 54.0621C86.9435 54.2941 87.1715 54.5421 87.3395 54.8061C87.5155 55.0701 87.6435 55.3221 87.7235 55.5621C87.8115 55.8021 87.8715 55.9981 87.9035 56.1501C87.9355 56.2941 87.9515 56.3661 87.9515 56.3661H86.5475C86.5475 56.3661 86.5315 56.3061 86.4995 56.1861C86.4755 56.0581 86.4155 55.9021 86.3195 55.7181C86.2315 55.5341 86.0955 55.3541 85.9115 55.1781C85.7355 54.9941 85.4995 54.8421 85.2035 54.7221C84.9155 54.5941 84.5515 54.5301 84.1115 54.5301C83.6395 54.5301 83.2235 54.6221 82.8635 54.8061C82.5115 54.9901 82.2155 55.2381 81.9755 55.5501C81.7355 55.8621 81.5555 56.2141 81.4355 56.6061C81.3235 56.9981 81.2675 57.3981 81.2675 57.8061C81.2675 58.2141 81.3235 58.6141 81.4355 59.0061C81.5555 59.3901 81.7355 59.7421 81.9755 60.0621C82.2155 60.3741 82.5115 60.6221 82.8635 60.8061C83.2235 60.9901 83.6395 61.0821 84.1115 61.0821C84.5515 61.0821 84.9155 61.0221 85.2035 60.9021C85.4995 60.7741 85.7355 60.6181 85.9115 60.4341C86.0955 60.2501 86.2315 60.0661 86.3195 59.8821C86.4155 59.6981 86.4755 59.5461 86.4995 59.4261C86.5315 59.2981 86.5475 59.2341 86.5475 59.2341H87.9515C87.9515 59.2341 87.9355 59.3101 87.9035 59.4621C87.8715 59.6141 87.8115 59.8101 87.7235 60.0501C87.6435 60.2821 87.5155 60.5341 87.3395 60.8061C87.1715 61.0701 86.9435 61.3221 86.6555 61.5621C86.3755 61.7941 86.0235 61.9861 85.5995 62.1381C85.1835 62.2901 84.6835 62.3661 84.0995 62.3661ZM88.5552 62.2461L91.6512 53.3661H93.4512L96.5592 62.2461H95.0832L94.3992 60.2541H90.7152L90.0312 62.2461H88.5552ZM91.1352 59.0061H93.9792L92.5632 54.8661L91.1352 59.0061ZM97.952 62.2461V53.3661H101.252C101.884 53.3661 102.416 53.4901 102.848 53.7381C103.288 53.9781 103.62 54.2981 103.844 54.6981C104.068 55.0901 104.18 55.5181 104.18 55.9821C104.18 56.5421 104.02 57.0501 103.7 57.5061C103.388 57.9621 102.928 58.2821 102.32 58.4661L104.456 62.2461H102.884L100.868 58.6221H99.356V62.2461H97.952ZM101.228 54.5901H99.356V57.4461H101.228C101.732 57.4461 102.112 57.3021 102.368 57.0141C102.624 56.7181 102.752 56.3861 102.752 56.0181C102.752 55.6501 102.624 55.3221 102.368 55.0341C102.112 54.7381 101.732 54.5901 101.228 54.5901ZM106.143 62.2461V53.3661H109.179C109.891 53.3661 110.515 53.4941 111.051 53.7501C111.587 53.9981 112.031 54.3341 112.383 54.7581C112.743 55.1821 113.011 55.6581 113.187 56.1861C113.371 56.7141 113.463 57.2541 113.463 57.8061C113.463 58.3581 113.371 58.8981 113.187 59.4261C113.011 59.9541 112.743 60.4301 112.383 60.8541C112.031 61.2781 111.587 61.6181 111.051 61.8741C110.515 62.1221 109.891 62.2461 109.179 62.2461H106.143ZM109.119 54.5901H107.547V61.0101H109.119C109.615 61.0101 110.047 60.9221 110.415 60.7461C110.783 60.5621 111.087 60.3181 111.327 60.0141C111.567 59.7021 111.747 59.3581 111.867 58.9821C111.995 58.5981 112.059 58.2061 112.059 57.8061C112.059 57.4061 111.995 57.0141 111.867 56.6301C111.747 56.2461 111.567 55.9021 111.327 55.5981C111.087 55.2941 110.783 55.0501 110.415 54.8661C110.047 54.6821 109.615 54.5901 109.119 54.5901Z" fill="white"/>
<rect x="0.5" y="0.5" width="367" height="212" stroke="black"/>
<defs>
<linearGradient id="paint0_linear_173_292" x1="823" y1="-305.5" x2="-6.64964" y2="270.394" gradientUnits="userSpaceOnUse">
<stop stop-color="#F13005"/>
<stop offset="0.5" stop-color="#F13005"/>
<stop offset="1" stop-color="#07280F"/>
<stop offset="1" stop-color="#A33922"/>
</linearGradient>
<linearGradient id="paint1_linear_173_292" x1="164.96" y1="156.56" x2="319.533" y2="-76.0107" gradientUnits="userSpaceOnUse">
<stop stop-color="white" stop-opacity="0"/>
<stop offset="1" stop-color="#F7EBEB"/>
</linearGradient>
<linearGradient id="paint2_linear_173_292" x1="110.295" y1="145.127" x2="250.132" y2="-65.2776" gradientUnits="userSpaceOnUse">
<stop stop-color="white" stop-opacity="0"/>
<stop offset="1" stop-color="#F7EBEB"/>
</linearGradient>
<linearGradient id="paint3_linear_173_292" x1="31.5984" y1="116.203" x2="90.2912" y2="78.3187" gradientUnits="userSpaceOnUse">
<stop stop-color="#FADF14"/>
<stop offset="0.5" stop-color="#FFB42E"/>
<stop offset="1" stop-color="#E66712"/>
</linearGradient>
<linearGradient id="paint4_linear_173_292" x1="25.4389" y1="106.663" x2="84.1331" y2="68.779" gradientUnits="userSpaceOnUse">
<stop stop-color="#FADF14"/>
<stop offset="0.5" stop-color="#FFB42E"/>
<stop offset="1" stop-color="#E66712"/>
</linearGradient>
<linearGradient id="paint5_linear_173_292" x1="31.8115" y1="116.527" x2="90.4939" y2="78.6438" gradientUnits="userSpaceOnUse">
<stop stop-color="#FADF14"/>
<stop offset="0.5" stop-color="#FFB42E"/>
<stop offset="1" stop-color="#E66712"/>
</linearGradient>
<linearGradient id="paint6_linear_173_292" x1="37.7575" y1="125.745" x2="96.4513" y2="87.8495" gradientUnits="userSpaceOnUse">
<stop stop-color="#FADF14"/>
<stop offset="0.5" stop-color="#FFB42E"/>
<stop offset="1" stop-color="#E66712"/>
</linearGradient>
<linearGradient id="paint7_linear_173_292" x1="36.7268" y1="124.142" x2="95.4206" y2="86.2465" gradientUnits="userSpaceOnUse">
<stop stop-color="#FADF14"/>
<stop offset="0.5" stop-color="#FFB42E"/>
<stop offset="1" stop-color="#E66712"/>
</linearGradient>
<linearGradient id="paint8_linear_173_292" x1="31.3968" y1="115.869" x2="90.0791" y2="77.9851" gradientUnits="userSpaceOnUse">
<stop stop-color="#FADF14"/>
<stop offset="0.5" stop-color="#FFB42E"/>
<stop offset="1" stop-color="#E66712"/>
</linearGradient>
<linearGradient id="paint9_linear_173_292" x1="43.5971" y1="134.767" x2="102.279" y2="96.8838" gradientUnits="userSpaceOnUse">
<stop stop-color="#FADF14"/>
<stop offset="0.5" stop-color="#FFB42E"/>
<stop offset="1" stop-color="#E66712"/>
</linearGradient>
<linearGradient id="paint10_linear_173_292" x1="26.4812" y1="108.266" x2="85.1631" y2="70.3708" gradientUnits="userSpaceOnUse">
<stop stop-color="#FADF14"/>
<stop offset="0.5" stop-color="#FFB42E"/>
<stop offset="1" stop-color="#E66712"/>
</linearGradient>
<linearGradient id="paint11_linear_173_292" x1="19.6112" y1="97.6285" x2="78.3055" y2="59.745" gradientUnits="userSpaceOnUse">
<stop stop-color="#FADF14"/>
<stop offset="0.5" stop-color="#FFB42E"/>
<stop offset="1" stop-color="#E66712"/>
</linearGradient>
</defs>
</svg>
