<svg width="32" height="32" viewBox="0 0 32 32" fill="none" xmlns="http://www.w3.org/2000/svg">
<g filter="url(#filter0_dd_267_2517)">
<path d="M16 14.9926C14.3432 14.9926 13 16.3358 13 17.9926V23.9926H19V17.9926C19 16.3358 17.6568 14.9926 16 14.9926Z" fill="white"/>
<path d="M21 17.9926V23.9926H25C26.6568 23.9926 28 22.6495 28 20.9926V11.8716C28.0002 11.3521 27.7983 10.8529 27.437 10.4796L18.939 1.29261C17.4396 -0.329735 14.9089 -0.429344 13.2865 1.07009C13.2095 1.14134 13.1352 1.21555 13.064 1.29261L4.58102 10.4766C4.20873 10.8515 3.99986 11.3584 4 11.8866V20.9926C4 22.6495 5.34316 23.9926 7 23.9926H11V17.9926C11.0187 15.2658 13.2203 13.0391 15.8784 12.9749C18.6255 12.9087 20.9791 15.1733 21 17.9926Z" fill="white"/>
<path d="M16 14.9926C14.3432 14.9926 13 16.3358 13 17.9926V23.9926H19V17.9926C19 16.3358 17.6568 14.9926 16 14.9926Z" fill="white"/>
</g>
<defs>
<filter id="filter0_dd_267_2517" x="0" y="0.00756836" width="32" height="31.985" filterUnits="userSpaceOnUse" color-interpolation-filters="sRGB">
<feFlood flood-opacity="0" result="BackgroundImageFix"/>
<feColorMatrix in="SourceAlpha" type="matrix" values="0 0 0 0 0 0 0 0 0 0 0 0 0 0 0 0 0 0 127 0" result="hardAlpha"/>
<feOffset dy="4"/>
<feGaussianBlur stdDeviation="2"/>
<feComposite in2="hardAlpha" operator="out"/>
<feColorMatrix type="matrix" values="0 0 0 0 0 0 0 0 0 0 0 0 0 0 0 0 0 0 0.25 0"/>
<feBlend mode="normal" in2="BackgroundImageFix" result="effect1_dropShadow_267_2517"/>
<feColorMatrix in="SourceAlpha" type="matrix" values="0 0 0 0 0 0 0 0 0 0 0 0 0 0 0 0 0 0 127 0" result="hardAlpha"/>
<feOffset dy="4"/>
<feGaussianBlur stdDeviation="2"/>
<feComposite in2="hardAlpha" operator="out"/>
<feColorMatrix type="matrix" values="0 0 0 0 0 0 0 0 0 0 0 0 0 0 0 0 0 0 0.25 0"/>
<feBlend mode="normal" in2="effect1_dropShadow_267_2517" result="effect2_dropShadow_267_2517"/>
<feBlend mode="normal" in="SourceGraphic" in2="effect2_dropShadow_267_2517" result="shape"/>
</filter>
</defs>
</svg>
