<svg width="15" height="14" viewBox="0 0 15 14" fill="none" xmlns="http://www.w3.org/2000/svg">
<path d="M14.1706 5.43472C13.9171 5.72169 13.6712 6.00866 13.4146 6.28402C12.7255 7.02549 12.0288 7.76033 11.3351 8.49682C11.2258 8.61294 11.1089 8.72407 11.0087 8.8518C10.9692 8.90322 10.9434 8.99445 10.954 9.05915C11.206 10.6964 11.4626 12.3319 11.7191 13.9691C11.7206 13.9758 11.7191 13.984 11.7176 13.9957C11.7145 14.0106 11.6508 13.9857 11.5734 13.9409C11.3047 13.7883 11.0406 13.6374 10.7764 13.4848C9.73058 12.8843 8.68319 12.2838 7.64036 11.6784C7.54928 11.6253 7.48704 11.6502 7.40811 11.6949C6.10115 12.448 4.79419 13.1994 3.48572 13.9509C3.46295 13.9641 3.44018 13.9758 3.41589 13.9874C3.37643 14.0073 3.35669 13.9459 3.37187 13.8513C3.43107 13.4649 3.48724 13.0883 3.54644 12.7134C3.73922 11.4859 3.93655 10.2601 4.12478 9.03261C4.13388 8.97455 4.09594 8.88829 4.05495 8.8435C3.37643 8.11364 2.68879 7.3954 2.01634 6.6589C1.649 6.25582 1.29987 5.83283 0.95681 5.42975C0.89761 5.36008 0.918861 5.29207 1.00538 5.27714C1.18602 5.24728 1.3955 5.21245 1.60649 5.17927C2.52486 5.0333 3.44473 4.88733 4.3631 4.7397C4.67124 4.68993 4.97787 4.63188 5.28753 4.59704C5.40441 4.58377 5.46058 4.53069 5.50915 4.42121C6.14973 2.99301 6.79486 1.56646 7.43847 0.139914C7.45213 0.108397 7.46731 0.0785388 7.48401 0.0453633C7.50981 -0.00605874 7.54928 -0.0160114 7.57357 0.0271168C7.58875 0.0536572 7.60241 0.0785389 7.61455 0.105079C8.26575 1.54655 8.91847 2.98803 9.56664 4.43282C9.61369 4.53733 9.66682 4.58211 9.77612 4.5987C11.1241 4.80937 12.4705 5.02666 13.8184 5.24231C13.9201 5.25889 14.0218 5.27382 14.1235 5.28875C14.2101 5.2987 14.2313 5.36505 14.1706 5.43472Z" fill="#D9D9D9"/>
</svg>
