<svg width="14" height="14" viewBox="0 0 14 14" fill="none" xmlns="http://www.w3.org/2000/svg">
<path d="M13.7087 5.43472C13.4552 5.72169 13.2093 6.00866 12.9527 6.28402C12.2636 7.02549 11.5668 7.76033 10.8731 8.49682C10.7638 8.61294 10.647 8.72407 10.5468 8.8518C10.5073 8.90322 10.4815 8.99445 10.4921 9.05915C10.7441 10.6964 11.0006 12.3319 11.2572 13.9691C11.2587 13.9758 11.2572 13.984 11.2557 13.9957C11.2526 14.0106 11.1889 13.9857 11.1115 13.9409C10.8428 13.7883 10.5787 13.6374 10.3145 13.4848C9.26866 12.8843 8.22127 12.2838 7.17844 11.6784C7.08736 11.6253 7.02513 11.6502 6.9462 11.6949C5.63924 12.448 4.33228 13.1994 3.02381 13.9509C3.00104 13.9641 2.97827 13.9758 2.95398 13.9874C2.91451 14.0073 2.89478 13.9459 2.90996 13.8513C2.96916 13.4649 3.02532 13.0883 3.08452 12.7134C3.2773 11.4859 3.47464 10.2601 3.66286 9.03261C3.67197 8.97455 3.63402 8.88829 3.59304 8.8435C2.91451 8.11364 2.22688 7.3954 1.55443 6.6589C1.18708 6.25582 0.837953 5.83283 0.494896 5.42975C0.435696 5.36008 0.456947 5.29207 0.54347 5.27714C0.724107 5.24728 0.933584 5.21245 1.14458 5.17927C2.06294 5.0333 2.98282 4.88733 3.90118 4.7397C4.20933 4.68993 4.51595 4.63188 4.82561 4.59704C4.9425 4.58377 4.99866 4.53069 5.04724 4.42121C5.68781 2.99301 6.33294 1.56646 6.97655 0.139914C6.99022 0.108397 7.00539 0.0785388 7.02209 0.0453633C7.0479 -0.00605874 7.08736 -0.0160114 7.11165 0.0271168C7.12683 0.0536572 7.14049 0.0785389 7.15264 0.105079C7.80384 1.54655 8.45656 2.98803 9.10472 4.43282C9.15178 4.53733 9.20491 4.58211 9.3142 4.5987C10.6621 4.80937 12.0086 5.02666 13.3565 5.24231C13.4582 5.25889 13.5599 5.27382 13.6616 5.28875C13.7481 5.2987 13.7694 5.36505 13.7087 5.43472Z" fill="#FFA305"/>
</svg>
